# xmcd
#
# Track frame offsets: 
#        150
#        32550
#        88950
#        112950
#
# Disc length: 2439 seconds
#
# Revision: 0
# Processed by: cddbd v1.5.2PL0 Copyright (c) Steve Scherf et al.
# Submitted via: ExactAudioCopy v1.0b3
#
DISCID=29098504
DTITLE=Barn Owl - The Factory Session - Live At Berkeley Art Museum
DYEAR=2013
DGENRE=Instrumental
TTITLE0=Factory
TTITLE1=I
TTITLE2=II
TTITLE3=III
EXTD=
EXTT0=
EXTT1=
EXTT2=
EXTT3=
PLAYORDER=
